<svg xmlns="http://www.w3.org/2000/svg" width="209" height="67" viewBox="0 0 209 67">
  <g fill="none" fill-rule="evenodd">
    <path fill="#231F20" d="M106.252407,27.982805 L106.252407,20.3638991 L111.672457,20.3638991 L111.672457,21.2625666 L107.244263,21.2625666 L107.244263,23.5959088 L111.391207,23.5959088 L111.391207,24.4900145 L107.244263,24.4900145 L107.244263,27.0833772 L111.846742,27.0833772 L111.846742,27.982805 L106.252407,27.982805 Z M113.905928,27.0521292 L115.772202,27.0521292 C116.092349,27.0521292 116.317498,27.0399645 116.446903,27.015635 C116.675793,26.9738189 116.866535,26.9053924 117.019876,26.8080748 C117.173217,26.7107572 117.29963,26.5693425 117.398367,26.3845911 C117.497104,26.1990793 117.546472,25.9854367 117.546472,25.7421426 C117.546472,25.4577927 117.474664,25.2114574 117.331794,25.0023766 C117.188925,24.7917752 116.989956,24.6450384 116.736382,24.5598855 C116.48206,24.4747326 116.117033,24.4329164 115.639057,24.4329164 L113.905928,24.4329164 L113.905928,27.0521292 Z M113.905928,23.5334886 L115.526856,23.5334886 C115.966684,23.5334886 116.281594,23.5038372 116.473084,23.4452945 C116.725162,23.3685049 116.915155,23.2422961 117.043064,23.0659079 C117.170973,22.8887594 117.234554,22.6667535 117.234554,22.4006506 C117.234554,22.1474727 117.175461,21.9254669 117.05578,21.7323522 C116.936099,21.5407581 116.766302,21.408467 116.544144,21.3369994 C116.322735,21.2670523 115.942748,21.2313185 115.404183,21.2313185 L113.905928,21.2313185 L113.905928,23.5334886 Z M112.914072,27.9515569 L112.914072,20.3318907 L115.726574,20.3318907 C116.298798,20.3318907 116.758074,20.4094407 117.104401,20.5637804 C117.449979,20.7173598 117.721505,20.9545715 117.917483,21.2746552 C118.11346,21.5954993 118.211449,21.9315492 118.211449,22.2812845 C118.211449,22.6066903 118.124681,22.9138491 117.950395,23.2012402 C117.776858,23.4886313 117.514308,23.720521 117.162745,23.8976695 C117.616037,24.0322415 117.965355,24.2626106 118.209205,24.5887767 C118.452307,24.9141825 118.574232,25.2988913 118.574232,25.7421426 C118.574232,26.0994808 118.500179,26.430969 118.352074,26.7381277 C118.203221,27.0437659 118.01996,27.2809776 117.80229,27.447482 C117.583872,27.6132261 117.31085,27.7386746 116.981728,27.8238275 C116.652605,27.9089805 116.24943,27.9515569 115.772202,27.9515569 L112.914072,27.9515569 Z M120.669396,23.9545394 L122.608228,23.9545394 C123.24852,23.9545394 123.704056,23.8336527 123.97259,23.5903586 C124.241872,23.3478249 124.377261,23.0072132 124.377261,22.5670029 C124.377261,22.2484398 124.297973,21.9747339 124.139395,21.7489266 C123.980818,21.5215987 123.771377,21.3718208 123.512567,21.2988326 C123.345761,21.253215 123.037583,21.2311664 122.587283,21.2311664 L120.669396,21.2311664 L120.669396,23.9545394 Z M119.677541,27.9514049 L119.677541,20.3317387 L122.505751,20.3317387 C123.003175,20.3317387 123.383162,20.3568284 123.645712,20.4047269 C124.01373,20.467071 124.322657,20.5856768 124.571743,20.7613048 C124.820081,20.9354121 125.019798,21.180987 125.172391,21.496509 C125.324237,21.812031 125.399785,22.1579648 125.399785,22.5358309 C125.399785,23.1836014 125.197076,23.7317733 124.790909,24.1811071 C124.385489,24.6296805 123.652444,24.8539672 122.591771,24.8539672 L120.669396,24.8539672 L120.669396,27.9514049 L119.677541,27.9514049 Z M126.892281,24.25592 C126.892281,25.1743551 127.135383,25.8973947 127.620839,26.425799 C128.107043,26.9542033 128.71592,27.2180253 129.448965,27.2180253 C130.195475,27.2180253 130.809588,26.9519224 131.292052,26.418196 C131.774515,25.8844697 132.016121,25.1272169 132.016121,24.1464376 C132.016121,23.5267981 131.912896,22.9854687 131.707195,22.5224497 C131.499997,22.060191 131.198551,21.7013322 130.80136,21.447394 C130.404169,21.1919353 129.959105,21.0649662 129.463925,21.0649662 C128.762296,21.0649662 128.157907,21.3097808 127.651507,21.8009307 C127.145855,22.2905601 126.892281,23.1086364 126.892281,24.25592 Z M125.869009,24.2399538 C125.869009,22.9755849 126.203368,21.9856822 126.872085,21.2702455 C127.540054,20.5548089 128.402505,20.1967104 129.459437,20.1967104 C130.150595,20.1967104 130.774432,20.3647354 131.330948,20.7007854 C131.886716,21.0375956 132.310088,21.5059367 132.601062,22.1065689 C132.892784,22.7079614 133.038645,23.3891848 133.038645,24.1517597 C133.038645,24.9249787 132.885304,25.6160859 132.578622,26.2258417 C132.271191,26.8355974 131.8366,27.2970959 131.274099,27.6110973 C130.711599,27.9243384 130.104966,28.080959 129.454201,28.080959 C128.748084,28.080959 128.118263,27.9083722 127.562495,27.5616782 C127.005978,27.2149841 126.585599,26.7420813 126.299113,26.1422093 C126.011878,25.5430977 125.869009,24.9090125 125.869009,24.2399538 Z M134.064834,20.3319667 L139.960616,20.3319667 L139.960616,27.9508727 L138.963525,27.9508727 L138.963525,21.2313945 L135.05669,21.2313945 L135.05669,27.9508727 L134.064834,27.9508727 L134.064834,20.3319667 Z M141.340388,27.9512528 L141.340388,20.3323469 L146.760438,20.3323469 L146.760438,21.2310144 L142.332244,21.2310144 L142.332244,23.5643566 L146.479188,23.5643566 L146.479188,24.4584623 L142.332244,24.4584623 L142.332244,27.051825 L146.934723,27.051825 L146.934723,27.9512528 L141.340388,27.9512528 Z M151.78614,18.5181334 L152.415213,18.5181334 C152.3636,18.9507407 152.208015,19.2837494 151.946961,19.5156391 C151.686655,19.7482891 151.33958,19.864614 150.906485,19.864614 C150.470397,19.864614 150.121827,19.7490494 149.860773,19.51792 C149.600467,19.2883112 149.444133,18.9545422 149.393269,18.5181334 L150.022342,18.5181334 C150.069466,18.7538245 150.164463,18.9294525 150.305836,19.0457774 C150.447209,19.1621024 150.637203,19.2198847 150.875817,19.2198847 C151.151831,19.2198847 151.361272,19.163623 151.502645,19.0503392 C151.644019,18.938576 151.739015,18.7606672 151.78614,18.5181334 Z M148.058827,20.3321948 L148.958678,20.3321948 L148.958678,26.3658878 L152.947045,20.3321948 L153.944137,20.3321948 L153.944137,27.9511008 L153.044285,27.9511008 L153.044285,21.9326137 L149.050682,27.9511008 L148.058827,27.9511008 L148.058827,20.3321948 Z M160.656292,25.2798079 L161.648148,25.5345064 C161.440202,26.3624665 161.066199,26.9942708 160.526139,27.4283986 C159.986079,27.8632868 159.32559,28.0814912 158.544672,28.0814912 C157.736825,28.0814912 157.080076,27.9142265 156.572928,27.5796971 C156.067276,27.2451678 155.682053,26.7608605 155.417259,26.1267754 C155.153961,25.4926902 155.021564,24.8122271 155.021564,24.0846257 C155.021564,23.2908788 155.170417,22.5990113 155.468124,22.0082629 C155.767326,21.4175145 156.191445,20.968941 156.742726,20.6617823 C157.29251,20.3553838 157.898395,20.2018044 158.559632,20.2018044 C159.309882,20.2018044 159.94045,20.3956794 160.452086,20.7841896 C160.962974,21.1726998 161.319773,21.7178306 161.520239,22.4211025 L160.544091,22.6552731 C160.369806,22.1002585 160.117728,21.6973027 159.787109,21.4441248 C159.456491,21.1909469 159.040599,21.0647381 158.539436,21.0647381 C157.962723,21.0647381 157.481755,21.2053925 157.094288,21.4859409 C156.708317,21.7664894 156.436043,22.1435952 156.278962,22.6157378 C156.121881,23.0894009 156.044088,23.5767494 156.044088,24.0793037 C156.044088,24.7270742 156.136841,25.2934932 156.323094,25.7755195 C156.5086,26.2598268 156.79733,26.6209664 157.189285,26.8596988 C157.581988,27.0991914 158.006107,27.2185575 158.462391,27.2185575 C159.018907,27.2185575 159.488655,27.0558546 159.873878,26.7296885 C160.259101,26.4042827 160.519407,25.9207357 160.656292,25.2798079 Z M162.624221,20.3319667 L163.616076,20.3319667 L163.616076,23.668897 C164.070116,23.668897 164.388018,23.5791823 164.572028,23.4012735 C164.756785,23.2226044 164.991659,22.7937986 165.278145,22.1148561 C165.486091,21.615343 165.657384,21.2633269 165.792025,21.0565269 C165.926666,20.8512475 166.118156,20.6779005 166.367242,20.5372461 C166.616328,20.397352 166.890098,20.3266447 167.190048,20.3266447 C167.572279,20.3266447 167.773493,20.3304462 167.793689,20.3372888 L167.793689,21.2101063 C167.759281,21.2101063 167.692708,21.2085857 167.594719,21.2047842 C167.48551,21.2017431 167.418938,21.2002225 167.395002,21.2002225 C167.077847,21.2002225 166.842973,21.2777725 166.689632,21.4336327 C166.532551,21.589493 166.35303,21.9225017 166.152564,22.4318987 C165.900486,23.0758677 165.687304,23.482625 165.513019,23.6506499 C165.339482,23.8186749 165.131536,23.9532469 164.889182,24.0536058 C165.37389,24.1881778 165.85037,24.6420733 166.320865,25.4152923 L167.865497,27.9508727 L166.632784,27.9508727 L165.380622,25.8828731 C165.036539,25.311132 164.747809,24.9188203 164.515927,24.7051777 C164.284793,24.4930557 163.984095,24.3858542 163.616076,24.3858542 L163.616076,27.9508727 L162.624221,27.9508727 L162.624221,20.3319667 Z M168.462107,20.3319667 L169.361958,20.3319667 L169.361958,26.36642 L173.350325,20.3319667 L174.347417,20.3319667 L174.347417,27.9508727 L173.447566,27.9508727 L173.447566,21.9323856 L169.453963,27.9508727 L168.462107,27.9508727 L168.462107,20.3319667 Z M183.708635,25.2798079 L184.700491,25.5345064 C184.492545,26.3624665 184.118542,26.9942708 183.578482,27.4283986 C183.038422,27.8632868 182.377932,28.0814912 181.597014,28.0814912 C180.789168,28.0814912 180.132419,27.9142265 179.625271,27.5796971 C179.119619,27.2451678 178.734396,26.7608605 178.469602,26.1267754 C178.206304,25.4926902 178.073907,24.8122271 178.073907,24.0846257 C178.073907,23.2908788 178.22276,22.5990113 178.520466,22.0082629 C178.819669,21.4175145 179.243788,20.968941 179.795068,20.6617823 C180.344853,20.3553838 180.950737,20.2018044 181.611975,20.2018044 C182.362224,20.2018044 182.992793,20.3956794 183.504429,20.7841896 C184.015317,21.1726998 184.372116,21.7178306 184.572582,22.4211025 L183.596434,22.6552731 C183.422149,22.1002585 183.170071,21.6973027 182.839452,21.4441248 C182.508834,21.1909469 182.092942,21.0647381 181.591778,21.0647381 C181.015066,21.0647381 180.534098,21.2053925 180.146631,21.4859409 C179.76066,21.7664894 179.488386,22.1435952 179.331305,22.6157378 C179.174224,23.0894009 179.096431,23.5767494 179.096431,24.0793037 C179.096431,24.7270742 179.189184,25.2934932 179.375437,25.7755195 C179.560943,26.2598268 179.849673,26.6209664 180.241628,26.8596988 C180.634331,27.0991914 181.05845,27.2185575 181.514734,27.2185575 C182.07125,27.2185575 182.540998,27.0558546 182.926221,26.7296885 C183.311444,26.4042827 183.57175,25.9207357 183.708635,25.2798079 Z M187.76709,27.0937172 L189.5825,27.0937172 C190.206337,27.0937172 190.657385,26.9872761 190.937139,26.7736335 C191.216893,26.5615115 191.35677,26.2224203 191.35677,25.7578807 C191.35677,25.4423587 191.273741,25.1770161 191.108432,24.9603323 C190.943123,24.7436486 190.723957,24.6052751 190.451683,24.5444515 C190.179409,24.483628 189.725369,24.4532163 189.091808,24.4532163 L187.76709,24.4532163 L187.76709,27.0937172 Z M184.494565,20.3316626 L187.76709,20.3316626 L187.76709,23.5857208 L189.561556,23.5857208 C190.738169,23.5857208 191.509363,23.8077267 191.875138,24.2509781 C192.241661,24.6942295 192.42567,25.1929823 192.42567,25.7472366 C192.42567,26.3851233 192.212489,26.912007 191.789117,27.3278878 C191.36425,27.7430083 190.642424,27.9513288 189.622893,27.9513288 L186.775234,27.9513288 L186.775234,21.2310904 L184.494565,21.2310904 L184.494565,20.3316626 Z M196.791406,24.1779898 C196.791406,25.1412823 197.009824,25.8886513 197.445912,26.4200968 C197.881999,26.9523026 198.454971,27.2184055 199.164081,27.2184055 C199.890395,27.2184055 200.469351,26.9515423 200.902446,26.4178159 C201.335542,25.8840895 201.551716,25.1169529 201.551716,24.1156457 C201.551716,23.1660386 201.338534,22.4186696 200.912919,21.8735388 C200.486555,21.3268874 199.910591,21.0547022 199.184277,21.0547022 C198.444499,21.0547022 197.861055,21.3306889 197.433195,21.8834226 C197.005336,22.4361564 196.791406,23.2010121 196.791406,24.1779898 Z M193.360304,20.3316626 L194.352159,20.3316626 L194.352159,23.7514649 L195.794315,23.7514649 C195.866123,22.6710872 196.214694,21.8089138 196.842271,21.1664654 C197.469848,20.5232567 198.247026,20.2024127 199.174553,20.2024127 C200.152197,20.2024127 200.963035,20.5513876 201.60632,21.2516183 C202.248109,21.9518491 202.569751,22.900696 202.569751,24.0996796 C202.569751,25.347322 202.248857,26.3227792 201.607816,27.0260511 C200.967523,27.729323 200.146961,28.0813391 199.148373,28.0813391 C198.24179,28.0813391 197.486304,27.7772215 196.881167,27.1689863 C196.27603,26.5615115 195.920728,25.719866 195.814511,24.6455706 L194.352159,24.6455706 L194.352159,27.9513288 L193.360304,27.9513288 L193.360304,20.3316626 Z M203.23787,25.7995448 L204.184098,25.5501684 C204.255158,25.9204316 204.447396,26.291455 204.758566,26.6624785 C205.071233,27.0327417 205.484132,27.2182534 205.99876,27.2182534 C206.524608,27.2182534 206.938255,27.0821608 207.241945,26.8076946 C207.544888,26.5339888 207.696733,26.2032609 207.696733,25.815511 C207.696733,25.3958287 207.53666,25.0620597 207.215765,24.8149641 C206.895619,24.5671083 206.459531,24.4431804 205.906755,24.4431804 L205.431771,24.4431804 L205.431771,23.5650408 C205.888055,23.5650408 206.238122,23.5376703 206.479728,23.4844497 C206.721333,23.4304688 206.935263,23.2936159 207.120769,23.0731306 C207.307022,22.8534057 207.399775,22.603269 207.399775,22.3227205 C207.399775,21.9897117 207.273362,21.7000397 207.01904,21.4544648 C206.765466,21.2088898 206.422131,21.0857222 205.989036,21.0857222 C205.610545,21.0857222 205.287406,21.1815192 205.020368,21.3746339 C204.751834,21.566228 204.567077,21.8216868 204.465348,22.1379691 C204.362871,22.4557719 204.312007,22.6914631 204.312007,22.8473233 L203.360543,22.629119 C203.596165,21.0112134 204.475072,20.2022606 205.99876,20.2022606 C206.731805,20.2022606 207.313006,20.4090606 207.742361,20.8234208 C208.172465,21.2370207 208.387142,21.721328 208.387142,22.2755823 C208.387142,22.9864571 208.055776,23.53691 207.395287,23.9284614 C207.77677,24.0364231 208.096168,24.2553878 208.35423,24.5861157 C208.611544,24.9168435 208.739453,25.3121964 208.739453,25.7736948 C208.739453,26.428308 208.489619,26.9772402 207.990699,27.4182107 C207.491779,27.8607018 206.829046,28.0811871 206.003996,28.0811871 C204.586525,28.0811871 203.663486,27.3208931 203.23787,25.7995448 Z M106.252407,42.3248385 L106.252407,34.7059326 L111.672457,34.7059326 L111.672457,35.6046001 L107.244263,35.6046001 L107.244263,37.9379423 L111.391207,37.9379423 L111.391207,38.832048 L107.244263,38.832048 L107.244263,41.4254107 L111.846742,41.4254107 L111.846742,42.3248385 L106.252407,42.3248385 Z M113.905928,41.4256388 L115.772202,41.4256388 C116.092349,41.4256388 116.317498,41.4134741 116.446903,41.3891447 C116.675793,41.3473285 116.866535,41.2789021 117.019876,41.1815844 C117.173217,41.0842668 117.29963,40.9428521 117.398367,40.7581007 C117.497104,40.572589 117.546472,40.3589464 117.546472,40.1156523 C117.546472,39.8313023 117.474664,39.5849671 117.331794,39.3758863 C117.188925,39.1652848 116.989956,39.0185481 116.736382,38.9333952 C116.48206,38.8482422 116.117033,38.8064261 115.639057,38.8064261 L113.905928,38.8064261 L113.905928,41.4256388 Z M113.905928,37.9069983 L115.526856,37.9069983 C115.966684,37.9069983 116.281594,37.8773468 116.473084,37.8188042 C116.725162,37.7420145 116.915155,37.6158057 117.043064,37.4394175 C117.170973,37.262269 117.234554,37.0402632 117.234554,36.7741603 C117.234554,36.5209824 117.175461,36.2989765 117.05578,36.1058619 C116.936099,35.9142678 116.766302,35.7819766 116.544144,35.710509 C116.322735,35.640562 115.942748,35.6048281 115.404183,35.6048281 L113.905928,35.6048281 L113.905928,37.9069983 Z M112.914072,42.3250666 L112.914072,34.7054004 L115.726574,34.7054004 C116.298798,34.7054004 116.758074,34.7829504 117.104401,34.93729 C117.449979,35.0908694 117.721505,35.3280811 117.917483,35.6481649 C118.11346,35.969009 118.211449,36.3050589 118.211449,36.6547941 C118.211449,36.9801999 118.124681,37.2873587 117.950395,37.5747498 C117.776858,37.862141 117.514308,38.0940306 117.162745,38.2711791 C117.616037,38.4057511 117.965355,38.6361202 118.209205,38.9622863 C118.452307,39.2876922 118.574232,39.6724009 118.574232,40.1156523 C118.574232,40.4729905 118.500179,40.8044786 118.352074,41.1116374 C118.203221,41.4172756 118.01996,41.6544873 117.80229,41.8209917 C117.583872,41.9867358 117.31085,42.1121843 116.981728,42.1973372 C116.652605,42.2824901 116.24943,42.3250666 115.772202,42.3250666 L112.914072,42.3250666 Z M120.669396,38.3280491 L122.608228,38.3280491 C123.24852,38.3280491 123.704056,38.2071624 123.97259,37.9638683 C124.241872,37.7213345 124.377261,37.3807228 124.377261,36.9405126 C124.377261,36.6219494 124.297973,36.3482436 124.139395,36.1224363 C123.980818,35.8951084 123.771377,35.7453305 123.512567,35.6723422 C123.345761,35.6267246 123.037583,35.6046761 122.587283,35.6046761 L120.669396,35.6046761 L120.669396,38.3280491 Z M119.677541,42.3249145 L119.677541,34.7052483 L122.505751,34.7052483 C123.003175,34.7052483 123.383162,34.730338 123.645712,34.7782365 C124.01373,34.8405806 124.322657,34.9591865 124.571743,35.1348144 C124.820081,35.3089217 125.019798,35.5544967 125.172391,35.8700187 C125.324237,36.1855407 125.399785,36.5314744 125.399785,36.9093405 C125.399785,37.557111 125.197076,38.105283 124.790909,38.5546167 C124.385489,39.0031902 123.652444,39.2274769 122.591771,39.2274769 L120.669396,39.2274769 L120.669396,42.3249145 L119.677541,42.3249145 Z M126.892281,38.6295057 C126.892281,39.5479408 127.135383,40.2709804 127.620839,40.7993847 C128.107043,41.327789 128.71592,41.591611 129.448965,41.591611 C130.195475,41.591611 130.809588,41.3255081 131.292052,40.7917817 C131.774515,40.2580554 132.016121,39.5008026 132.016121,38.5200233 C132.016121,37.9003837 131.912896,37.3590544 131.707195,36.8960354 C131.499997,36.4337767 131.198551,36.0749179 130.80136,35.8209797 C130.404169,35.5655209 129.959105,35.4385519 129.463925,35.4385519 C128.762296,35.4385519 128.157907,35.6833665 127.651507,36.1745164 C127.145855,36.6641457 126.892281,37.4822221 126.892281,38.6295057 Z M125.869009,38.6135395 C125.869009,37.3491706 126.203368,36.3592679 126.872085,35.6438312 C127.540054,34.9283946 128.402505,34.5702961 129.459437,34.5702961 C130.150595,34.5702961 130.774432,34.7383211 131.330948,35.074371 C131.886716,35.4111813 132.310088,35.8795224 132.601062,36.4801546 C132.892784,37.0815471 133.038645,37.7627705 133.038645,38.5253454 C133.038645,39.2985644 132.885304,39.9896716 132.578622,40.5994274 C132.271191,41.2091831 131.8366,41.6706816 131.274099,41.984683 C130.711599,42.2979241 130.104966,42.4545447 129.454201,42.4545447 C128.748084,42.4545447 128.118263,42.2819579 127.562495,41.9352639 C127.005978,41.5885698 126.585599,41.115667 126.299113,40.515795 C126.011878,39.9166834 125.869009,39.2825982 125.869009,38.6135395 Z M134.064834,34.7055524 L139.960616,34.7055524 L139.960616,42.3244584 L138.963525,42.3244584 L138.963525,35.6049802 L135.05669,35.6049802 L135.05669,42.3244584 L134.064834,42.3244584 L134.064834,34.7055524 Z M141.340388,42.3248385 L141.340388,34.7059326 L146.760438,34.7059326 L146.760438,35.6046001 L142.332244,35.6046001 L142.332244,37.9379423 L146.479188,37.9379423 L146.479188,38.832048 L142.332244,38.832048 L142.332244,41.4254107 L146.934723,41.4254107 L146.934723,42.3248385 L141.340388,42.3248385 Z M151.78614,32.8916431 L152.415213,32.8916431 C152.3636,33.3242503 152.208015,33.6572591 151.946961,33.8891488 C151.686655,34.1217987 151.33958,34.2381237 150.906485,34.2381237 C150.470397,34.2381237 150.121827,34.122559 149.860773,33.8914296 C149.600467,33.6618209 149.444133,33.3280518 149.393269,32.8916431 L150.022342,32.8916431 C150.069466,33.1273342 150.164463,33.3029621 150.305836,33.4192871 C150.447209,33.5356121 150.637203,33.5933944 150.875817,33.5933944 C151.151831,33.5933944 151.361272,33.5371326 151.502645,33.4238488 C151.644019,33.3120856 151.739015,33.1341768 151.78614,32.8916431 Z M148.058827,34.7057045 L148.958678,34.7057045 L148.958678,40.7393975 L152.947045,34.7057045 L153.944137,34.7057045 L153.944137,42.3246104 L153.044285,42.3246104 L153.044285,36.3061233 L149.050682,42.3246104 L148.058827,42.3246104 L148.058827,34.7057045 Z M160.656292,39.6533936 L161.648148,39.908092 C161.440202,40.7360522 161.066199,41.3678565 160.526139,41.8019843 C159.986079,42.2368725 159.32559,42.4550769 158.544672,42.4550769 C157.736825,42.4550769 157.080076,42.2878122 156.572928,41.9532828 C156.067276,41.6187535 155.682053,41.1344462 155.417259,40.500361 C155.153961,39.8662759 155.021564,39.1858128 155.021564,38.4582114 C155.021564,37.6644645 155.170417,36.972597 155.468124,36.3818486 C155.767326,35.7911002 156.191445,35.3425267 156.742726,35.035368 C157.29251,34.7289695 157.898395,34.5753901 158.559632,34.5753901 C159.309882,34.5753901 159.94045,34.7692651 160.452086,35.1577753 C160.962974,35.5462855 161.319773,36.0914163 161.520239,36.7946882 L160.544091,37.0288588 C160.369806,36.4738442 160.117728,36.0708883 159.787109,35.8177105 C159.456491,35.5645326 159.040599,35.4383238 158.539436,35.4383238 C157.962723,35.4383238 157.481755,35.5789781 157.094288,35.8595266 C156.708317,36.1400751 156.436043,36.5171809 156.278962,36.9893235 C156.121881,37.4629866 156.044088,37.9503351 156.044088,38.4528894 C156.044088,39.1006598 156.136841,39.6670789 156.323094,40.1491052 C156.5086,40.6334125 156.79733,40.9945521 157.189285,41.2332844 C157.581988,41.472777 158.006107,41.5921432 158.462391,41.5921432 C159.018907,41.5921432 159.488655,41.4294403 159.873878,41.1032742 C160.259101,40.7778683 160.519407,40.2943214 160.656292,39.6533936 Z M162.624221,34.7055524 L163.616076,34.7055524 L163.616076,38.0424827 C164.070116,38.0424827 164.388018,37.952768 164.572028,37.7748592 C164.756785,37.5961901 164.991659,37.1673843 165.278145,36.4884418 C165.486091,35.9889287 165.657384,35.6369125 165.792025,35.4301126 C165.926666,35.2248332 166.118156,35.0514862 166.367242,34.9108318 C166.616328,34.7709377 166.890098,34.7002304 167.190048,34.7002304 C167.572279,34.7002304 167.773493,34.7040318 167.793689,34.7108745 L167.793689,35.583692 C167.759281,35.583692 167.692708,35.5821714 167.594719,35.5783699 C167.48551,35.5753287 167.418938,35.5738081 167.395002,35.5738081 C167.077847,35.5738081 166.842973,35.6513581 166.689632,35.8072184 C166.532551,35.9630787 166.35303,36.2960874 166.152564,36.8054844 C165.900486,37.4494534 165.687304,37.8562107 165.513019,38.0242356 C165.339482,38.1922606 165.131536,38.3268326 164.889182,38.4271914 C165.37389,38.5617635 165.85037,39.015659 166.320865,39.7888779 L167.865497,42.3244584 L166.632784,42.3244584 L165.380622,40.2564587 C165.036539,39.6847177 164.747809,39.292406 164.515927,39.0787634 C164.284793,38.8666414 163.984095,38.7594399 163.616076,38.7594399 L163.616076,42.3244584 L162.624221,42.3244584 L162.624221,34.7055524 Z M168.462107,34.7055524 L169.361958,34.7055524 L169.361958,40.7400057 L173.350325,34.7055524 L174.347417,34.7055524 L174.347417,42.3244584 L173.447566,42.3244584 L173.447566,36.3059712 L169.453963,42.3244584 L168.462107,42.3244584 L168.462107,34.7055524 Z M111.580452,51.2857393 L112.572308,51.5404378 C112.364362,52.3683979 111.99036,53.0002022 111.450299,53.4343301 C110.910239,53.8692182 110.249002,54.0874226 109.468832,54.0874226 C108.660986,54.0874226 108.003488,53.9201579 107.497837,53.5856286 C106.991437,53.2510992 106.606214,52.766792 106.342168,52.1327068 C106.078121,51.4986216 105.945724,50.8181585 105.945724,50.0905572 C105.945724,49.2968103 106.094578,48.6049428 106.393032,48.0141943 C106.691486,47.4234459 107.115606,46.9748725 107.666138,46.6677137 C108.21667,46.3613152 108.822555,46.2077359 109.483792,46.2077359 C110.234042,46.2077359 110.864611,46.4016108 111.376247,46.790121 C111.887135,47.1786313 112.243186,47.723762 112.444399,48.427034 L111.468251,48.6612045 C111.293966,48.1061899 111.041888,47.7032341 110.71127,47.4500562 C110.380651,47.1968783 109.96476,47.0706695 109.463596,47.0706695 C108.887631,47.0706695 108.405916,47.2113239 108.019197,47.4918724 C107.632478,47.7724209 107.360203,48.1495267 107.203122,48.6216692 C107.046789,49.0953324 106.968248,49.5826808 106.968248,50.0852351 C106.968248,50.7330056 107.061001,51.2994246 107.247255,51.781451 C107.43276,52.2657583 107.72149,52.6268979 108.113445,52.8656302 C108.5054,53.1051228 108.930268,53.224489 109.386551,53.224489 C109.94232,53.224489 110.412815,53.061786 110.798038,52.7356199 C111.183261,52.4102141 111.444315,51.9266671 111.580452,51.2857393 Z M114.023514,50.2618514 C114.023514,51.1802865 114.266616,51.9033261 114.752072,52.4317304 C115.238276,52.9601347 115.847152,53.2239567 116.580198,53.2239567 C117.326708,53.2239567 117.940821,52.9578539 118.424033,52.4241275 C118.905748,51.8904011 119.147354,51.1331483 119.147354,50.1523691 C119.147354,49.5327295 119.044129,48.9914002 118.83768,48.5283812 C118.63123,48.0661224 118.329784,47.7072637 117.932593,47.4533255 C117.535402,47.1978667 117.08959,47.0708976 116.595158,47.0708976 C115.893529,47.0708976 115.28914,47.3157123 114.78274,47.8068622 C114.27634,48.2964915 114.023514,49.1145678 114.023514,50.2618514 Z M113.00099,50.2458852 C113.00099,48.9815164 113.335349,47.9916136 114.003318,47.276177 C114.671287,46.5607404 115.533738,46.2026419 116.59067,46.2026419 C117.282576,46.2026419 117.906412,46.3706669 118.462181,46.7067168 C119.017201,47.043527 119.440572,47.5118681 119.733043,48.1125004 C120.023269,48.7138929 120.169878,49.3951163 120.169878,50.1576911 C120.169878,50.9309101 120.016537,51.6220173 119.709855,52.2317731 C119.402424,52.8415289 118.967833,53.3030273 118.405332,53.6170287 C117.842832,53.9302698 117.236199,54.0868904 116.585434,54.0868904 C115.879317,54.0868904 115.248748,53.9143037 114.693727,53.5676096 C114.137959,53.2209156 113.716832,52.7480127 113.430346,52.1481408 C113.143859,51.5490291 113.00099,50.9149439 113.00099,50.2458852 Z M121.190981,46.3378982 L122.182837,46.3378982 L122.182837,53.0581366 L126.089671,53.0581366 L126.089671,46.3378982 L127.087511,46.3378982 L127.087511,53.0581366 L127.772684,53.0581366 L127.772684,56.0727022 L126.893029,56.0727022 L126.893029,53.9568041 L121.190981,53.9568041 L121.190981,46.3378982 Z M128.687046,46.3378982 L129.586897,46.3378982 L129.586897,52.3723515 L133.575265,46.3378982 L134.572356,46.3378982 L134.572356,53.9568041 L133.672505,53.9568041 L133.672505,47.938317 L129.678902,53.9568041 L128.687046,53.9568041 L128.687046,46.3378982 Z M137.276023,50.8283465 L139.816999,50.8283465 L139.035333,48.7185307 C138.795971,48.0776029 138.619442,47.5499588 138.503501,47.1378795 C138.407756,47.6267485 138.273115,48.1118161 138.099578,48.5938425 L137.276023,50.8283465 Z M135.112791,53.9569562 L137.991865,46.3380502 L139.060765,46.3380502 L142.128337,53.9569562 L140.998848,53.9569562 L140.12443,51.649464 L136.989537,51.649464 L136.166731,53.9569562 L135.112791,53.9569562 Z M143.436824,46.3378982 L148.13056,46.3378982 L148.13056,53.9568041 L147.138705,53.9568041 L147.138705,47.237326 L144.42868,47.237326 L144.42868,51.1612032 C144.42868,51.9579912 144.392027,52.541897 144.318723,52.9121602 C144.245418,53.2831836 144.091329,53.5720954 143.856455,53.7773747 C143.620833,53.9841747 143.323127,54.0868144 142.961092,54.0868144 C142.742674,54.0868144 142.480872,54.0457585 142.17419,53.9621262 L142.342491,53.0687807 C142.506305,53.1372072 142.645434,53.1721807 142.762123,53.1721807 C142.986524,53.1721807 143.155574,53.0870278 143.267775,52.9144411 C143.380723,52.7441352 143.436824,52.3396588 143.436824,51.7017722 L143.436824,46.3378982 Z M149.520954,53.9571843 L149.520954,46.3382783 L154.941004,46.3382783 L154.941004,47.2369458 L150.512809,47.2369458 L150.512809,49.570288 L154.659754,49.570288 L154.659754,50.4643937 L150.512809,50.4643937 L150.512809,53.0577565 L155.115289,53.0577565 L155.115289,53.9571843 L149.520954,53.9571843 Z M156.253754,53.9571843 L156.253754,46.3382783 L157.24561,46.3382783 L157.24561,49.466888 L161.141972,49.466888 L161.141972,46.3382783 L162.133828,46.3382783 L162.133828,53.9571843 L161.141972,53.9571843 L161.141972,50.3655555 L157.24561,50.3655555 L157.24561,53.9571843 L156.253754,53.9571843 Z M169.812033,48.1153895 L169.812033,52.1069328 C170.452326,52.0757608 170.95723,51.8872079 171.325249,51.5405138 C171.694016,51.1938198 171.878025,50.7178757 171.878025,50.1111612 C171.878025,49.5150907 171.697756,49.0437084 171.335721,48.6947335 C170.974434,48.3472791 170.466538,48.1534042 169.812033,48.1153895 Z M168.881514,48.1207115 C168.264409,48.1480821 167.765489,48.3335938 167.383258,48.6764864 C167.001027,49.019379 166.810286,49.4976039 166.810286,50.1111612 C166.810286,50.7178757 166.998783,51.1938198 167.37503,51.5405138 C167.752025,51.8872079 168.253937,52.0742402 168.881514,52.1016108 L168.881514,48.1207115 Z M168.881514,47.2524558 L168.881514,46.2754781 L169.812033,46.2754781 L169.812033,47.2524558 C170.766488,47.3049161 171.51973,47.5961087 172.071759,48.1290748 C172.624535,48.6605203 172.900549,49.3212157 172.900549,50.1111612 C172.900549,50.8843801 172.632763,51.5405138 172.097939,52.0810828 C171.562367,52.6216519 170.800149,52.9189268 169.812033,52.9751886 L169.812033,53.9574884 L168.881514,53.9574884 L168.881514,52.9751886 C167.995127,52.940215 167.256845,52.6649886 166.667416,52.1517902 C166.077988,51.6363109 165.782526,50.9566081 165.782526,50.1111612 C165.782526,49.2626731 166.076492,48.5829703 166.665172,48.0735733 C167.252357,47.5641763 167.991387,47.2904705 168.881514,47.2524558 Z M174.592314,50.2618514 C174.592314,51.1802865 174.835416,51.9033261 175.320871,52.4317304 C175.807075,52.9601347 176.415952,53.2239567 177.148998,53.2239567 C177.895508,53.2239567 178.50962,52.9578539 178.992084,52.4241275 C179.474548,51.8904011 179.716154,51.1331483 179.716154,50.1523691 C179.716154,49.5327295 179.612929,48.9914002 179.407227,48.5283812 C179.20003,48.0661224 178.898583,47.7072637 178.501392,47.4533255 C178.104201,47.1978667 177.659138,47.0708976 177.163958,47.0708976 C176.462328,47.0708976 175.85794,47.3157123 175.35154,47.8068622 C174.845888,48.2964915 174.592314,49.1145678 174.592314,50.2618514 Z M173.56979,50.2458852 C173.56979,48.9815164 173.9034,47.9916136 174.572118,47.276177 C175.240087,46.5607404 176.102538,46.2026419 177.15947,46.2026419 C177.850627,46.2026419 178.474464,46.3706669 179.03098,46.7067168 C179.586749,47.043527 180.01012,47.5118681 180.301094,48.1125004 C180.592817,48.7138929 180.738678,49.3951163 180.738678,50.1576911 C180.738678,50.9309101 180.585337,51.6220173 180.278654,52.2317731 C179.971224,52.8415289 179.536632,53.3030273 178.974132,53.6170287 C178.411632,53.9302698 177.804999,54.0868904 177.154234,54.0868904 C176.448116,54.0868904 175.818295,53.9143037 175.262527,53.5676096 C174.706011,53.2209156 174.285631,52.7480127 173.999145,52.1481408 C173.712659,51.5490291 173.56979,50.9149439 173.56979,50.2458852 Z M181.785961,53.9571843 L181.785961,46.3382783 L182.777816,46.3382783 L182.777816,49.466888 L186.674179,49.466888 L186.674179,46.3382783 L187.666034,46.3382783 L187.666034,53.9571843 L186.674179,53.9571843 L186.674179,50.3655555 L182.777816,50.3655555 L182.777816,53.9571843 L181.785961,53.9571843 Z M193.304876,47.2370218 L190.692092,47.2370218 L190.692092,47.6270527 C190.692092,48.2748231 190.635244,49.1605656 190.520799,50.2850404 C190.406354,51.4095152 190.181952,52.3340326 189.848342,53.0578325 L193.304876,53.0578325 L193.304876,47.2370218 Z M189.736141,46.3375941 L194.296732,46.3375941 L194.296732,53.0578325 L194.972181,53.0578325 L194.972181,55.7348276 L194.087291,55.7348276 L194.087291,53.9572603 L189.1325,53.9572603 L189.1325,55.7348276 L188.247609,55.7348276 L188.247609,53.0578325 L188.831054,53.0578325 C189.433946,52.1325547 189.736141,50.2629919 189.736141,47.4499042 L189.736141,46.3375941 Z"/>
    <polygon fill="#044DA1" points="0 66.955 98.93 66.955 98.93 .916 0 .916"/>
    <path fill="#FFF100" d="M47.3569898,15.305608 L48.1517866,12.8387974 L46.0320102,11.3131817 L48.6447134,11.3160512 L49.4442866,8.81671965 L50.2438598,11.3131817 L52.8575183,11.3131817 L50.7377419,12.8387974 L51.5325386,15.305608 L49.4442866,13.7799923 L47.3569898,15.305608 Z M36.5540589,18.2115472 L37.3469451,15.7447366 L35.228124,14.2191209 L37.8408272,14.2219904 L38.6404004,11.7197894 L39.4399736,14.2191209 L42.0536321,14.2191209 L39.934811,15.7447366 L40.7276972,18.2115472 L38.6413557,16.6859315 L36.5540589,18.2115472 Z M30.7370447,19.6524171 L31.5366179,22.1517487 L34.1493211,22.1517487 L32.0305,23.6773644 L32.8243415,26.144175 L30.7370447,24.6185593 L28.6487927,26.144175 L29.4435894,23.6773644 L27.3247683,22.1517487 L29.9374715,22.1546182 L30.7370447,19.6524171 Z M27.8370874,35.4220227 L25.7497907,36.9476384 L26.5436321,34.4808278 L24.4238557,32.9552121 L27.0375142,32.9599946 L27.8370874,30.4558806 L28.6366606,32.9552121 L31.2493638,32.9552121 L29.1305427,34.4808278 L29.9234289,36.9476384 L27.8370874,35.4220227 Z M31.537,43.7904313 L34.148748,43.7904313 L32.0299268,45.316047 L32.8247236,47.7828576 L30.7374268,46.2543724 L28.6491748,47.7828576 L29.4439715,45.316047 L27.3251504,43.7904313 L29.9368984,43.7933008 L30.7374268,41.2910998 L31.537,43.7904313 Z M39.4563089,51.7207635 L42.0699675,51.7207635 L39.9511463,53.2463792 L40.7440325,55.7122333 L38.6576911,54.1866176 L36.5703943,55.7122333 L37.3632805,53.2463792 L35.2444593,51.7207635 L37.8581179,51.7226765 L38.6567358,49.2243014 L39.4563089,51.7207635 Z M50.2457703,54.5939904 L52.8594289,54.5939904 L50.7396524,56.1196061 L51.5334939,58.5864167 L49.4471524,57.060801 L47.3598557,58.5864167 L48.1527419,56.1196061 L46.0339207,54.5939904 L48.6475793,54.5968599 L49.4461972,52.0946589 L50.2457703,54.5939904 Z M61.0351362,51.7207635 L63.6487947,51.7207635 L61.5290183,53.2463792 L62.3247703,55.7122333 L60.2365183,54.1866176 L58.1492215,55.7122333 L58.9421077,53.2463792 L56.8242419,51.7207635 L59.4350346,51.7226765 L60.2365183,49.2243014 L61.0351362,51.7207635 Z M68.957311,43.7904313 L71.5681037,43.7904313 L69.4483272,45.316047 L70.2440793,47.7828576 L68.1567825,46.2543724 L66.0685305,47.7828576 L66.8642825,45.316047 L64.7445061,43.7904313 L67.3552988,43.7933008 L68.1567825,41.2910998 L68.957311,43.7904313 Z M74.438065,32.9246998 L72.3182886,34.4503155 L73.1111748,36.9161696 L71.0229228,35.3895974 L68.9384919,36.9161696 L69.731378,34.4503155 L67.6116016,32.9246998 L70.2243049,32.9275693 L71.0229228,30.4253683 L71.8244065,32.9246998 L74.438065,32.9246998 Z M66.0685305,26.1110801 L66.8642825,23.6442695 L64.7445061,22.1215233 L67.3552988,22.1243928 L68.1567825,19.6221918 L68.957311,22.1215233 L71.5681037,22.1215233 L69.4483272,23.6442695 L70.2440793,26.1110801 L68.1567825,24.5854644 L66.0685305,26.1110801 Z M60.2664187,11.7224676 L61.0650366,14.2189296 L63.681561,14.2189296 L61.5608293,15.7474148 L62.3546707,18.2142254 L60.2692846,16.6857402 L58.179122,18.2142254 L58.9720081,15.7474148 L56.8541423,14.2189296 L59.4687561,14.2246686 L60.2664187,11.7224676 Z"/>
  </g>
</svg>
