<svg xmlns="http://www.w3.org/2000/svg" width="189" height="64" viewBox="0 0 189 64">
  <defs>
    <linearGradient id="a" x1="0%" x2="100.023%" y1="50.021%" y2="50.021%">
      <stop offset="0%" stop-color="#008641"/>
      <stop offset="12%" stop-color="#008943"/>
      <stop offset="21%" stop-color="#009348"/>
      <stop offset="30%" stop-color="#00A450"/>
      <stop offset="31%" stop-color="#00A651"/>
      <stop offset="88%" stop-color="#00A651"/>
      <stop offset="100%" stop-color="#009247"/>
    </linearGradient>
    <linearGradient id="b" x1="49.981%" x2="49.981%" y1="-.005%" y2="100.035%">
      <stop offset="0%" stop-color="#D51920"/>
      <stop offset="5%" stop-color="#D81921"/>
      <stop offset="9%" stop-color="#E21B22"/>
      <stop offset="11%" stop-color="#ED1C24"/>
      <stop offset="83%" stop-color="#ED1C24"/>
      <stop offset="91%" stop-color="#CD161D"/>
      <stop offset="96%" stop-color="#B51218"/>
      <stop offset="100%" stop-color="#B51218"/>
    </linearGradient>
    <linearGradient id="c" x1="100%" x2="0%" y1="49.964%" y2="49.964%">
      <stop offset="0%" stop-color="#FFD400"/>
      <stop offset="12%" stop-color="#FFD400"/>
      <stop offset="13%" stop-color="#FFD400"/>
      <stop offset="25%" stop-color="#FFD800"/>
      <stop offset="37%" stop-color="#FFE400"/>
      <stop offset="46%" stop-color="#FFF200"/>
      <stop offset="61%" stop-color="#FFE900"/>
      <stop offset="82%" stop-color="#FFD400"/>
      <stop offset="100%" stop-color="#FFD400"/>
    </linearGradient>
    <linearGradient id="d" x1="6.795%" x2="94.939%" y1="98.964%" y2="2.867%">
      <stop offset="0%" stop-color="#02428D"/>
      <stop offset="6%" stop-color="#024490"/>
      <stop offset="12%" stop-color="#034A9A"/>
      <stop offset="14%" stop-color="#034EA2"/>
      <stop offset="28%" stop-color="#0256A7"/>
      <stop offset="41%" stop-color="#0062AF"/>
      <stop offset="86%" stop-color="#034EA2"/>
      <stop offset="100%" stop-color="#023F88"/>
    </linearGradient>
    <linearGradient id="e" x1="50.013%" x2="50.013%" y1="100.045%" y2=".005%">
      <stop offset="0%" stop-color="#DCDDDE"/>
      <stop offset="16%" stop-color="#DFE0E1"/>
      <stop offset="29%" stop-color="#E9E9EA"/>
      <stop offset="31%" stop-color="#EBEBEC"/>
      <stop offset="43%" stop-color="#F2F2F3"/>
      <stop offset="54%" stop-color="#FFFFFF"/>
      <stop offset="72%" stop-color="#FFFFFF"/>
      <stop offset="100%" stop-color="#DCDDDE"/>
    </linearGradient>
  </defs>
  <g fill="none" fill-rule="evenodd" transform="translate(0 -.74)">
    <g transform="translate(0 1)">
      <path fill="url(#a)" d="M0,30.3306931 C45.4855442,23.9720572 81.4685374,0 81.4685374,0 L66.7712585,0 C33.4489796,18.5672167 0,22.8275028 0,22.8275028 L0,30.3306931 Z"/>
      <path fill="url(#b)" d="M81.5952381,63.5227723 C46.0556973,37.9610561 38.3269558,0 38.3269558,0 L30.6615646,0 C30.6615646,0 36.869898,35.6083608 69.5586735,63.5227723 L81.5952381,63.5227723 Z"/>
      <path fill="url(#c)" fill-rule="nonzero" d="M0,36.9436744 L0,44.4468647 C5.19472789,45.209901 10.2627551,46.1636964 15.3307823,47.3082508 C15.7108844,44.8283828 16.0909864,42.3485149 16.4077381,39.9322332 C10.9596088,38.6605061 5.51147959,37.6431243 0,36.9436744 L0,36.9436744 Z M33.3856293,44.6376238 C30.1547619,43.5566557 26.9238946,42.6028603 23.6296769,41.7126513 C23.3129252,44.1925193 22.9328231,46.6723872 22.5527211,49.1522552 C24.7066327,49.7245325 26.9238946,50.360396 29.0778061,51.059846 C30.4081633,48.8343234 31.8652211,46.7359736 33.3856293,44.6376238 L33.3856293,44.6376238 Z M69.5586735,63.5227723 L58.7891156,63.5227723 C51.5038265,59.7075908 44.0284864,56.3375138 36.2997449,53.539714 C37.6934524,51.3777778 39.1505102,49.2794279 40.7342687,47.1810781 C48.2096088,50.0424642 55.5582483,53.3489549 62.5901361,57.1005501 C64.8707483,59.389659 67.1513605,61.4880088 69.5586735,63.5227723 L69.5586735,63.5227723 Z"/>
      <path fill="url(#d)" d="M48.9698129,26.8334433 C47.0693027,28.6138614 45.2954932,30.3942794 43.5216837,32.3018702 C39.8473639,36.1806381 36.4897959,40.3137514 33.3856293,44.7012101 C31.8652211,46.79956 30.4081633,48.9614961 29.0778061,51.1870187 C26.6071429,55.1929593 24.3265306,59.389659 22.3626701,63.649945 L30.5982143,63.649945 C32.3086735,60.2162816 34.2091837,56.909791 36.2997449,53.6668867 C37.6934524,51.5049505 39.1505102,49.4066007 40.7342687,47.3082508 C42.8881803,44.3832783 45.1687925,41.6490649 47.6394558,38.9148515 C49.349915,37.0072607 51.1237245,35.1632563 52.9608844,33.4464246 C58.662415,27.9144114 64.997449,22.9546755 71.712585,18.7579758 L71.712585,10.0466447 C63.4770408,14.6884488 55.8116497,20.3476348 48.9698129,26.8334433 L48.9698129,26.8334433 Z"/>
      <path fill="url(#e)" d="M19.7019558,63.5227723 C19.7019558,63.5227723 27.2406463,35.1632563 25.0233844,0 L17.5480442,0 C20.2087585,32.0475248 12.0365646,63.5227723 12.0365646,63.5227723 L19.7019558,63.5227723 Z"/>
    </g>
    <path fill="#808184" fill-rule="nonzero" d="M84.6653912,33.7968464 C84.3486395,33.7968464 84.0952381,33.8604327 83.9685374,34.0511918 C83.8418367,34.2419509 83.7151361,34.5598827 83.6517857,34.9414008 L83.5884354,35.3865053 L82.4481293,35.3865053 L82.4481293,32.6522919 L83.144983,32.6522919 C83.5884354,32.2071874 83.7784864,31.6349102 83.7784864,30.9990466 L83.7784864,26.6115878 L89.2266156,26.6115878 L89.2266156,32.6522919 L89.9868197,32.6522919 L89.9868197,35.3865053 L88.8465136,35.3865053 L88.7831633,34.9414008 C88.7198129,34.4962963 88.6564626,34.2419509 88.4664116,34.0511918 C88.2763605,33.8604327 88.0863095,33.7968464 87.7062075,33.7968464 L84.6653912,33.7968464 Z M87.7695578,27.8197286 L85.2988946,27.8197286 L85.2988946,30.6811148 C85.2988946,31.1898056 85.1721939,31.6349102 84.9187925,32.0800147 C84.8554422,32.2071874 84.6653912,32.3979465 84.4119898,32.7158783 L87.7695578,32.7158783 L87.7695578,27.8197286 Z M94.0412415,33.9240191 C93.0276361,33.9240191 92.2040816,33.6060873 91.5705782,32.9066373 C90.9370748,32.2071874 90.6203231,31.3169784 90.6203231,30.2360103 C90.6203231,29.0914558 90.9370748,28.2012468 91.5705782,27.5017968 C92.2040816,26.8023469 93.0276361,26.4844151 94.1045918,26.4844151 C95.1181973,26.4844151 95.9417517,26.8023469 96.5752551,27.5017968 C97.2087585,28.1376604 97.5255102,29.0278695 97.5255102,30.1088376 C97.5255102,31.253392 97.2087585,32.143601 96.5752551,32.9066373 C95.8784014,33.5425009 95.0548469,33.9240191 94.0412415,33.9240191 Z M92.077381,30.1088376 C92.077381,30.8082875 92.2040816,31.3805647 92.5208333,31.8256692 C92.837585,32.3343601 93.3443878,32.6522919 94.0412415,32.6522919 C94.6113946,32.6522919 95.1181973,32.3979465 95.434949,31.952842 C95.815051,31.5077374 95.9417517,30.8718739 95.9417517,30.1088376 C95.9417517,29.3458012 95.7517007,28.773524 95.434949,28.3920059 C95.1181973,27.9469014 94.6113946,27.7561423 94.0412415,27.7561423 C93.4710884,27.7561423 92.9642857,27.9469014 92.647534,28.3920059 C92.267432,28.8371104 92.077381,29.4093876 92.077381,30.1088376 Z M98.5391156,26.6115878 L103.797194,26.6115878 L103.797194,27.883315 L99.9961735,27.883315 L99.9961735,29.0914558 L101.706633,29.0914558 C102.466837,29.0914558 103.03699,29.2186285 103.480442,29.5365603 C104.050595,29.9180785 104.303997,30.5539421 104.303997,31.3805647 C104.303997,32.2071874 103.987245,32.843051 103.417092,33.2881555 C102.973639,33.6060873 102.403486,33.7968464 101.769983,33.7968464 L98.412415,33.7968464 L98.412415,26.6115878 L98.5391156,26.6115878 Z M102.783588,31.4441511 C102.783588,30.7447011 102.340136,30.363183 101.389881,30.363183 L100.059524,30.363183 L100.059524,32.4615328 L101.516582,32.4615328 C102.340136,32.5251192 102.783588,32.143601 102.783588,31.4441511 Z M105.634354,33.7968464 L105.634354,26.6115878 L108.61182,26.6115878 C109.308673,26.6115878 109.815476,26.7387605 110.195578,26.993106 C110.829082,27.4382105 111.082483,28.0740741 111.082483,28.9642831 C111.082483,29.7909058 110.765731,30.4267693 110.195578,30.8718739 C109.688776,31.253392 109.181973,31.3805647 108.548469,31.3805647 L107.154762,31.3805647 L107.154762,33.7968464 L105.634354,33.7968464 Z M108.231718,27.883315 L107.091412,27.883315 L107.091412,30.0452512 L108.231718,30.0452512 C109.055272,30.0452512 109.498724,29.7273194 109.498724,29.0278695 C109.498724,28.2648331 109.055272,27.883315 108.231718,27.883315 Z M115.200255,33.9240191 C114.18665,33.9240191 113.363095,33.6060873 112.729592,32.9066373 C112.096088,32.2071874 111.779337,31.3169784 111.779337,30.2360103 C111.779337,29.0914558 112.096088,28.2012468 112.729592,27.5017968 C113.363095,26.8023469 114.18665,26.4844151 115.263605,26.4844151 C116.277211,26.4844151 117.100765,26.8023469 117.734269,27.5017968 C118.367772,28.1376604 118.684524,29.0278695 118.684524,30.1088376 C118.684524,31.253392 118.367772,32.143601 117.734269,32.9066373 C117.037415,33.5425009 116.213861,33.9240191 115.200255,33.9240191 Z M113.236395,30.1088376 C113.236395,30.8082875 113.363095,31.3805647 113.679847,31.8256692 C113.996599,32.3343601 114.503401,32.6522919 115.200255,32.6522919 C115.770408,32.6522919 116.277211,32.3979465 116.593963,31.952842 C116.974065,31.5077374 117.100765,30.8718739 117.100765,30.1088376 C117.100765,29.3458012 116.910714,28.773524 116.593963,28.3920059 C116.277211,27.9469014 115.770408,27.7561423 115.200255,27.7561423 C114.630102,27.7561423 114.123299,27.9469014 113.806548,28.3920059 C113.426446,28.8371104 113.236395,29.4093876 113.236395,30.1088376 Z M123.372449,26.6115878 L124.702806,29.6001467 L124.892857,30.1724239 L125.146259,29.472974 L126.286565,26.6115878 L127.870323,26.6115878 L125.33631,32.5251192 C124.956207,33.4153282 124.386054,33.7968464 123.62585,33.7968464 L122.675595,33.7968464 L122.675595,32.5251192 L122.992347,32.5251192 C123.49915,32.5251192 123.879252,32.3979465 124.005952,32.0800147 L124.196003,31.6349102 L121.66199,26.5480015 L123.372449,26.5480015 L123.372449,26.6115878 Z M130.087585,33.7968464 L128.630527,33.7968464 L128.630527,26.6115878 L134.585459,26.6115878 L134.585459,33.7968464 L133.128401,33.7968464 L133.128401,27.883315 L130.087585,27.883315 L130.087585,33.7968464 Z M135.979167,33.7968464 L135.979167,26.6115878 L138.956633,26.6115878 C139.653486,26.6115878 140.160289,26.7387605 140.540391,26.993106 C141.173895,27.4382105 141.427296,28.0740741 141.427296,28.9642831 C141.427296,29.7909058 141.110544,30.4267693 140.540391,30.8718739 C140.033588,31.253392 139.526786,31.3805647 138.893282,31.3805647 L137.436224,31.3805647 L137.436224,33.7968464 L135.979167,33.7968464 Z M138.576531,27.883315 L137.436224,27.883315 L137.436224,30.0452512 L138.576531,30.0452512 C139.400085,30.0452512 139.843537,29.7273194 139.843537,29.0278695 C139.843537,28.2648331 139.400085,27.883315 138.576531,27.883315 Z M142.757653,33.7968464 L141.173895,33.7968464 L143.707908,26.6115878 L145.355017,26.6115878 L147.889031,33.7968464 L146.305272,33.7968464 L145.798469,32.2707737 L143.201105,32.2707737 L142.757653,33.7968464 Z M143.644558,31.0626329 L145.418367,31.0626329 L144.531463,28.2648331 L143.644558,31.0626329 Z M148.649235,33.7968464 L148.649235,26.6115878 L151.753401,26.6115878 C152.576956,26.6115878 153.210459,26.7387605 153.527211,26.993106 C153.970663,27.3746241 154.224065,27.8197286 154.224065,28.4555922 C154.224065,28.773524 154.097364,29.0914558 153.843963,29.4093876 C153.590561,29.7273194 153.27381,29.8544921 152.893707,29.9180785 C153.33716,29.9180785 153.717262,30.1088376 153.970663,30.363183 C154.287415,30.6811148 154.414116,31.1262193 154.414116,31.6349102 C154.414116,33.03381 153.590561,33.73326 151.943452,33.73326 L148.649235,33.73326 L148.649235,33.7968464 Z M150.106293,27.883315 L150.106293,29.472974 L151.56335,29.472974 C152.006803,29.472974 152.323554,29.4093876 152.450255,29.2822149 C152.640306,29.1550422 152.703656,28.9642831 152.703656,28.6463513 C152.703656,28.3920059 152.640306,28.2012468 152.450255,28.0740741 C152.260204,27.9469014 152.006803,27.883315 151.56335,27.883315 L150.106293,27.883315 Z M151.56335,30.6811148 L150.106293,30.6811148 L150.106293,32.5251192 L151.56335,32.5251192 C152.133503,32.5251192 152.513605,32.4615328 152.703656,32.3343601 C152.893707,32.2071874 153.020408,31.952842 153.020408,31.6349102 C153.020408,31.253392 152.893707,31.0626329 152.703656,30.8718739 C152.513605,30.7447011 152.133503,30.6811148 151.56335,30.6811148 Z M157.391582,26.6115878 L159.03869,26.6115878 L161.572704,33.7968464 L159.988946,33.7968464 L158.215136,28.2648331 L156.441327,33.7968464 L154.857568,33.7968464 L157.391582,26.6115878 Z M162.269558,33.7968464 L162.269558,26.6115878 L167.400935,26.6115878 L167.400935,27.883315 L163.726616,27.883315 L163.726616,29.4093876 L167.084184,29.4093876 L167.084184,30.6175284 L163.726616,30.6175284 L163.726616,32.4615328 L167.590986,32.4615328 L167.590986,33.73326 L162.269558,33.73326 L162.269558,33.7968464 Z M168.731293,26.6115878 L170.18835,26.6115878 L170.18835,29.4093876 L173.039116,29.4093876 L173.039116,26.6115878 L174.496173,26.6115878 L174.496173,33.7968464 L173.039116,33.7968464 L173.039116,30.6811148 L170.18835,30.6811148 L170.18835,33.7968464 L168.731293,33.7968464 L168.731293,26.6115878 Z M175.826531,26.6115878 L177.283588,26.6115878 L177.283588,32.143601 L179.944303,26.6115878 L181.718112,26.6115878 L181.718112,33.7968464 L180.261054,33.7968464 L180.261054,28.3920059 L177.60034,33.7968464 L175.76318,33.7968464 L175.76318,26.6115878 L175.826531,26.6115878 Z M183.17517,33.7968464 L183.17517,26.6115878 L188.306548,26.6115878 L188.306548,27.883315 L184.632228,27.883315 L184.632228,29.4093876 L187.989796,29.4093876 L187.989796,30.6175284 L184.632228,30.6175284 L184.632228,32.4615328 L188.496599,32.4615328 L188.496599,33.73326 L183.17517,33.73326 L183.17517,33.7968464 Z"/>
    <path fill="#808184" d="M83.7784864,21.7154382 C83.7784864,21.9697836 83.8418367,22.1605427 83.9051871,22.4148882 C83.9685374,22.6056472 84.1585884,22.7964063 84.2852891,22.923579 C84.4753401,23.0507517 84.6653912,23.1779245 84.9187925,23.2415108 C85.1721939,23.3050972 85.4255952,23.3686835 85.7423469,23.3686835 C86.0590986,23.3686835 86.3125,23.3050972 86.5659014,23.2415108 C86.8193027,23.1779245 87.0093537,23.0507517 87.1994048,22.923579 C87.3894558,22.7964063 87.5161565,22.6056472 87.5795068,22.4148882 C87.6428571,22.2241291 87.7062075,21.9697836 87.7062075,21.7154382 C87.7062075,21.5246791 87.7062075,21.3339201 87.6428571,21.2067473 C87.5795068,21.0159883 87.5161565,20.8888155 87.3894558,20.7616428 C87.2627551,20.6344701 87.1360544,20.5072974 87.0093537,20.3801247 C86.8826531,20.252952 86.692602,20.1893656 86.4392007,20.1257792 C86.2491497,20.0621929 85.9957483,20.0621929 85.7423469,20.0621929 C85.4889456,20.0621929 85.2355442,20.0621929 85.0454932,20.1257792 C84.8554422,20.1893656 84.6653912,20.252952 84.4753401,20.3801247 C84.2852891,20.5072974 84.1585884,20.6344701 84.0952381,20.7616428 C83.9685374,20.8888155 83.9051871,21.0795746 83.8418367,21.2067473 C83.7784864,21.3975064 83.7784864,21.5246791 83.7784864,21.7154382 L83.7784864,21.7154382 Z M84.2219388,21.7154382 C84.2219388,21.3975064 84.2852891,21.143161 84.4119898,20.9524019 C84.5386905,20.7616428 84.7287415,20.5708838 84.9187925,20.5072974 C85.1721939,20.3801247 85.4255952,20.3165383 85.7423469,20.3165383 C86.0590986,20.3165383 86.3758503,20.3801247 86.5659014,20.5072974 C86.8193027,20.6344701 86.9460034,20.7616428 87.0727041,20.9524019 C87.1994048,21.143161 87.2627551,21.3975064 87.2627551,21.7154382 C87.2627551,21.9697836 87.1994048,22.2241291 87.0727041,22.4148882 C86.9460034,22.6056472 86.7559524,22.7964063 86.5659014,22.8599927 C86.3125,22.9871654 86.0590986,23.0507517 85.7423469,23.0507517 C85.4255952,23.0507517 85.1088435,22.9871654 84.9187925,22.8599927 C84.6653912,22.7328199 84.4753401,22.6056472 84.3486395,22.4148882 C84.2852891,22.2241291 84.2219388,22.03337 84.2219388,21.7154382 L84.2219388,21.7154382 Z M90.3669218,23.3050972 L90.8103741,23.3050972 L90.8103741,20.3801247 L93.1543367,20.3801247 L93.1543367,23.3050972 L93.5977891,23.3050972 L93.5977891,20.1257792 L90.3669218,20.1257792 L90.3669218,23.3050972 L90.3669218,23.3050972 Z M96.3218537,23.3050972 L99.2993197,23.3050972 L99.2993197,23.0507517 L96.7653061,23.0507517 L96.7653061,21.8426109 L99.0459184,21.8426109 L99.0459184,21.5882655 L96.7653061,21.5882655 L96.7653061,20.443711 L99.2359694,20.443711 L99.2359694,20.1257792 L96.3218537,20.1257792 L96.3218537,23.3050972 Z M102.213435,23.3050972 L102.213435,22.03337 L103.290391,22.03337 C103.480442,22.03337 103.670493,22.03337 103.860544,21.9697836 C104.050595,21.9061973 104.177296,21.9061973 104.303997,21.7790246 C104.430697,21.7154382 104.557398,21.5882655 104.620748,21.4610928 C104.684099,21.3339201 104.747449,21.2067473 104.747449,21.0159883 C104.747449,20.8252292 104.684099,20.6344701 104.557398,20.443711 C104.430697,20.3165383 104.303997,20.1893656 104.113946,20.1257792 C103.923895,20.0621929 103.670493,19.9986065 103.417092,19.9986065 L101.769983,19.9986065 L101.769983,23.1779245 L102.213435,23.1779245 L102.213435,23.3050972 Z M102.213435,20.3801247 L103.353741,20.3801247 C103.607143,20.3801247 103.797194,20.3801247 103.987245,20.443711 C104.113946,20.5072974 104.240646,20.5708838 104.303997,20.6980565 C104.367347,20.8252292 104.430697,20.9524019 104.430697,21.0795746 C104.430697,21.2067473 104.430697,21.3339201 104.367347,21.3975064 C104.303997,21.4610928 104.240646,21.5246791 104.113946,21.5882655 C103.987245,21.6518519 103.860544,21.6518519 103.733844,21.7154382 C103.607143,21.7154382 103.480442,21.7154382 103.290391,21.7154382 L102.276786,21.7154382 L102.276786,20.3801247 L102.213435,20.3801247 Z M106.83801,23.3050972 L107.281463,23.3050972 L107.788265,22.2877154 L109.688776,22.2877154 L110.195578,23.3050972 L110.639031,23.3050972 L108.928571,20.1257792 L108.485119,20.1257792 L106.83801,23.3050972 Z M107.914966,22.03337 L108.73852,20.443711 L109.562075,22.03337 L107.914966,22.03337 Z M114.059949,23.3050972 L114.503401,23.3050972 L114.503401,20.443711 L115.897109,20.443711 L115.897109,20.1257792 L112.666241,20.1257792 L112.666241,20.3801247 L114.059949,20.3801247 L114.059949,23.3050972 L114.059949,23.3050972 Z M118.811224,23.3050972 L121.281888,20.5708838 L121.281888,23.3050972 L121.72534,23.3050972 L121.72534,20.1257792 L121.218537,20.1257792 L118.747874,22.923579 L118.747874,20.1257792 L118.304422,20.1257792 L118.304422,23.3050972 L118.811224,23.3050972 Z M126.159864,23.3050972 C126.413265,23.3050972 126.666667,23.3050972 126.856718,23.2415108 C127.046769,23.1779245 127.173469,23.1779245 127.30017,23.0507517 C127.426871,22.9871654 127.490221,22.923579 127.553571,22.8599927 C127.616922,22.7964063 127.616922,22.7328199 127.680272,22.6056472 C127.680272,22.5420609 127.680272,22.4784745 127.680272,22.4148882 C127.680272,22.2241291 127.616922,22.03337 127.490221,21.9061973 C127.36352,21.7790246 127.110119,21.7154382 126.856718,21.6518519 C127.110119,21.5882655 127.30017,21.5246791 127.36352,21.3975064 C127.490221,21.2703337 127.553571,21.143161 127.553571,21.0159883 C127.553571,20.8888155 127.490221,20.6980565 127.426871,20.6344701 C127.36352,20.5072974 127.23682,20.443711 127.173469,20.3801247 C127.046769,20.3165383 126.920068,20.252952 126.730017,20.252952 C126.539966,20.252952 126.413265,20.1893656 126.223214,20.1893656 L124.512755,20.1893656 L124.512755,23.3686835 L126.159864,23.3686835 L126.159864,23.3050972 Z M124.829507,21.7790246 L126.159864,21.7790246 C126.413265,21.7790246 126.603316,21.7790246 126.793367,21.8426109 C126.920068,21.9061973 127.046769,21.9697836 127.110119,22.03337 C127.173469,22.0969564 127.23682,22.2241291 127.23682,22.4148882 C127.23682,22.5420609 127.173469,22.6692336 127.110119,22.7964063 C127.046769,22.8599927 126.920068,22.923579 126.793367,22.9871654 C126.666667,23.0507517 126.413265,23.0507517 126.159864,23.0507517 L124.829507,23.0507517 L124.829507,21.7790246 Z M124.829507,20.3801247 L126.033163,20.3801247 C126.159864,20.3801247 126.286565,20.3801247 126.413265,20.3801247 C126.539966,20.3801247 126.666667,20.443711 126.730017,20.443711 C126.793367,20.5072974 126.920068,20.5072974 126.920068,20.6344701 C126.983418,20.6980565 126.983418,20.8252292 126.983418,20.9524019 C126.983418,21.0795746 126.983418,21.143161 126.920068,21.2703337 C126.856718,21.3339201 126.793367,21.3975064 126.730017,21.4610928 C126.666667,21.5246791 126.539966,21.5246791 126.413265,21.5246791 C126.286565,21.5246791 126.159864,21.5246791 126.033163,21.5246791 L124.766156,21.5246791 L124.766156,20.3801247 L124.829507,20.3801247 Z M130.657738,23.3050972 L130.657738,21.7790246 L133.191752,21.7790246 L133.191752,23.3050972 L133.635204,23.3050972 L133.635204,20.1257792 L133.191752,20.1257792 L133.191752,21.4610928 L130.657738,21.4610928 L130.657738,20.1257792 L130.214286,20.1257792 L130.214286,23.3050972 L130.657738,23.3050972 Z M135.852466,23.3050972 L136.295918,23.3050972 L136.802721,22.2877154 L138.703231,22.2877154 L139.210034,23.3050972 L139.653486,23.3050972 L137.943027,20.1257792 L137.499575,20.1257792 L135.852466,23.3050972 Z M136.992772,22.03337 L137.816327,20.443711 L138.639881,22.03337 L136.992772,22.03337 Z M143.834609,23.3050972 L144.278061,23.3050972 L144.278061,20.3801247 L146.622024,20.3801247 L146.622024,23.3050972 L147.065476,23.3050972 L147.065476,20.1257792 L143.834609,20.1257792 L143.834609,23.3050972 L143.834609,23.3050972 Z M150.169643,23.3050972 L150.169643,22.03337 L151.246599,22.03337 C151.43665,22.03337 151.626701,22.03337 151.816752,21.9697836 C152.006803,21.9061973 152.133503,21.9061973 152.260204,21.7790246 C152.386905,21.7154382 152.513605,21.5882655 152.576956,21.4610928 C152.640306,21.3339201 152.703656,21.2067473 152.703656,21.0159883 C152.703656,20.8252292 152.640306,20.6344701 152.513605,20.443711 C152.386905,20.3165383 152.260204,20.1893656 152.070153,20.1257792 C151.880102,20.0621929 151.626701,19.9986065 151.373299,19.9986065 L149.72619,19.9986065 L149.72619,23.1779245 L150.169643,23.1779245 L150.169643,23.3050972 Z M150.169643,20.3801247 L151.309949,20.3801247 C151.56335,20.3801247 151.753401,20.3801247 151.943452,20.443711 C152.070153,20.5072974 152.196854,20.5708838 152.260204,20.6980565 C152.323554,20.8252292 152.386905,20.9524019 152.386905,21.0795746 C152.386905,21.2067473 152.386905,21.3339201 152.323554,21.3975064 C152.260204,21.4610928 152.196854,21.5246791 152.070153,21.5882655 C151.943452,21.6518519 151.816752,21.6518519 151.690051,21.7154382 C151.56335,21.7154382 151.43665,21.7154382 151.246599,21.7154382 L150.232993,21.7154382 L150.232993,20.3801247 L150.169643,20.3801247 Z M155.047619,21.7154382 C155.047619,21.9697836 155.110969,22.1605427 155.17432,22.4148882 C155.23767,22.6056472 155.427721,22.7964063 155.554422,22.923579 C155.744473,23.0507517 155.934524,23.1779245 156.187925,23.2415108 C156.441327,23.3050972 156.694728,23.3686835 157.01148,23.3686835 C157.328231,23.3686835 157.581633,23.3050972 157.835034,23.2415108 C158.088435,23.1779245 158.278486,23.0507517 158.468537,22.923579 C158.658588,22.7964063 158.785289,22.6056472 158.848639,22.4148882 C158.91199,22.2241291 158.97534,21.9697836 158.97534,21.7154382 C158.97534,21.5246791 158.97534,21.3339201 158.91199,21.2067473 C158.848639,21.0159883 158.785289,20.8888155 158.658588,20.7616428 C158.531888,20.6344701 158.405187,20.5072974 158.278486,20.3801247 C158.151786,20.252952 157.961735,20.1893656 157.708333,20.1257792 C157.518282,20.0621929 157.264881,20.0621929 157.01148,20.0621929 C156.758078,20.0621929 156.504677,20.0621929 156.314626,20.1257792 C156.124575,20.1893656 155.934524,20.252952 155.744473,20.3801247 C155.617772,20.5072974 155.427721,20.6344701 155.364371,20.7616428 C155.23767,20.8888155 155.17432,21.0795746 155.110969,21.2067473 C155.110969,21.3975064 155.047619,21.5246791 155.047619,21.7154382 L155.047619,21.7154382 Z M155.491071,21.7154382 C155.491071,21.3975064 155.554422,21.143161 155.681122,20.9524019 C155.807823,20.7616428 155.997874,20.5708838 156.187925,20.5072974 C156.441327,20.3801247 156.694728,20.3165383 157.01148,20.3165383 C157.328231,20.3165383 157.644983,20.3801247 157.835034,20.5072974 C158.088435,20.6344701 158.215136,20.7616428 158.341837,20.9524019 C158.468537,21.143161 158.531888,21.3975064 158.531888,21.7154382 C158.531888,21.9697836 158.468537,22.2241291 158.341837,22.4148882 C158.215136,22.6056472 158.025085,22.7964063 157.835034,22.8599927 C157.581633,22.9871654 157.328231,23.0507517 157.01148,23.0507517 C156.694728,23.0507517 156.441327,22.9871654 156.187925,22.8599927 C155.934524,22.7328199 155.744473,22.6056472 155.617772,22.4148882 C155.554422,22.2241291 155.491071,22.03337 155.491071,21.7154382 L155.491071,21.7154382 Z M162.079507,20.3801247 L164.170068,20.3801247 L164.170068,20.1257792 L161.636054,20.1257792 L161.636054,23.3050972 L162.079507,23.3050972 L162.079507,20.3801247 Z M167.020833,23.3050972 L167.020833,22.03337 L168.097789,22.03337 C168.28784,22.03337 168.477891,22.03337 168.667942,21.9697836 C168.857993,21.9061973 168.984694,21.9061973 169.111395,21.7790246 C169.238095,21.7154382 169.364796,21.5882655 169.428146,21.4610928 C169.491497,21.3339201 169.554847,21.2067473 169.554847,21.0159883 C169.554847,20.8252292 169.491497,20.6344701 169.364796,20.443711 C169.238095,20.3165383 169.111395,20.1893656 168.921344,20.1257792 C168.731293,20.0621929 168.477891,19.9986065 168.22449,19.9986065 L166.577381,19.9986065 L166.577381,23.1779245 L167.020833,23.1779245 L167.020833,23.3050972 Z M167.020833,20.3801247 L168.161139,20.3801247 C168.414541,20.3801247 168.604592,20.3801247 168.794643,20.443711 C168.921344,20.5072974 169.048044,20.5708838 169.111395,20.6980565 C169.174745,20.8252292 169.238095,20.9524019 169.238095,21.0795746 C169.238095,21.2067473 169.238095,21.3339201 169.174745,21.3975064 C169.111395,21.4610928 169.048044,21.5246791 168.921344,21.5882655 C168.794643,21.6518519 168.667942,21.6518519 168.541241,21.7154382 C168.414541,21.7154382 168.28784,21.7154382 168.097789,21.7154382 L167.084184,21.7154382 L167.084184,20.3801247 L167.020833,20.3801247 Z M171.645408,23.3050972 L172.088861,23.3050972 L172.595663,22.2877154 L174.496173,22.2877154 L175.002976,23.3050972 L175.446429,23.3050972 L173.735969,20.1257792 L173.292517,20.1257792 L171.645408,23.3050972 Z M172.722364,22.03337 L173.545918,20.443711 L174.369473,22.03337 L172.722364,22.03337 Z M178.297194,23.3050972 L178.297194,20.5072974 L179.817602,23.3050972 L180.261054,23.3050972 L181.781463,20.5072974 L181.781463,23.3050972 L182.224915,23.3050972 L182.224915,20.1257792 L181.528061,20.1257792 L180.071003,22.923579 L178.613946,20.1257792 L177.917092,20.1257792 L177.917092,23.3050972 L178.297194,23.3050972 Z M184.378827,23.3050972 L184.822279,23.3050972 L185.329082,22.2877154 L187.229592,22.2877154 L187.736395,23.3050972 L188.179847,23.3050972 L186.469388,20.1257792 L186.025935,20.1257792 L184.378827,23.3050972 Z M185.455782,22.03337 L186.279337,20.443711 L187.102891,22.03337 L185.455782,22.03337 Z"/>
  </g>
</svg>
