<svg xmlns="http://www.w3.org/2000/svg" width="30" height="30" viewBox="0 0 59 59">
  <path fill="#0D0D0D" d="M526.05412,1032.70102 C526.006544,1032.80002 525.941721,1032.8928 525.85965,1032.97487 L505.353553,1053.48097 C504.963029,1053.87149 504.329864,1053.87149 503.93934,1053.48097 L503.232233,1052.77386 C502.841709,1052.38334 502.841709,1051.75017 503.232233,1051.35965 L523.73833,1030.85355 C523.827578,1030.76431 523.929499,1030.69545 524.0383,1030.647 C520.897153,1026.97654 519,1022.20982 519,1017 C519,1005.40202 528.40202,996 540,996 C551.59798,996 561,1005.40202 561,1017 C561,1028.59798 551.59798,1038 540,1038 C534.647594,1038 529.762878,1035.99758 526.05412,1032.70102 Z M540,1035 C549.941125,1035 558,1026.94113 558,1017 C558,1007.05887 549.941125,999 540,999 C530.058875,999 522,1007.05887 522,1017 C522,1026.94113 530.058875,1035 540,1035 Z" transform="translate(-502 -996)"/>
</svg>
